# xmcd CD database file generated by LOLA_Freedb v0.9beta0
# 
# Track frame offsets:
#      150
#      14767
#      30983
#      43500
#      60930
#      72699
#      84982
#      95350
#      109243
#      123786
#      139979
#      153548
#      173419
#      186949
#      207481
#      218025
#      233894
#      246014
#      255412
#      270320
# 
# Disc length: 3743 seconds
# 
# Revision: 0 
# Processed by: cddbd v1.5.2PL0 Copyright (c) Steve Scherf et al.
# Submitted via: LOLA_Freedb v0.9beta0
# 
DISCID=0f0e9d14
DTITLE=Suzanne Prentice - The Suzanne Prentice Story
DYEAR=2003
DGENRE=
TTITLE0=One Day At A Time
TTITLE1=The Other Side Of Me
TTITLE2=Womanhood
TTITLE3=Dreamin' My Dreams
TTITLE4=Sweet Country Music
TTITLE5=I Saw A Man
TTITLE6=Love Is Like A Butterfly
TTITLE7=Teddy Bear Song
TTITLE8=There's Dust On Mother's Bible
TTITLE9=When I Dream
TTITLE10=Lay It All Out
TTITLE11=Amazing Grace
TTITLE12=Talking In Your Sleep
TTITLE13=How Great Thou Art
TTITLE14=The Wedding Song
TTITLE15=Daddy's Waiting
TTITLE16=The Old Rugged Cross
TTITLE17=Funny Face
TTITLE18=Could I Have This Dance
TTITLE19=Heaven's Just a Sin Away
EXTD=
EXTT0=
EXTT1=
EXTT2=
EXTT3=
EXTT4=
EXTT5=
EXTT6=
EXTT7=
EXTT8=
EXTT9=
EXTT10=
EXTT11=
EXTT12=
EXTT13=
EXTT14=
EXTT15=
EXTT16=
EXTT17=
EXTT18=
EXTT19=
PLAYORDER=
